<mxfile host="app.diagrams.net" agent="Mozilla/5.0 (Windows NT 10.0; Win64; x64) AppleWebKit/537.36 (KHTML, like Gecko) Chrome/137.0.0.0 Safari/537.36" version="27.1.6">
  <diagram name="Page-1" id="fz7811ueNwYyboyxonKb">
    <mxGraphModel dx="2084" dy="1054" grid="1" gridSize="10" guides="1" tooltips="1" connect="1" arrows="1" fold="1" page="1" pageScale="1" pageWidth="827" pageHeight="1169" math="0" shadow="0">
      <root>
        <mxCell id="0" />
        <mxCell id="1" parent="0" />
        <mxCell id="w340K_XqLO_WmUCIKMtA-1" value="Guest" style="shape=umlLifeline;perimeter=lifelinePerimeter;whiteSpace=wrap;container=1;dropTarget=0;collapsible=0;recursiveResize=0;outlineConnect=0;portConstraint=eastwest;newEdgeStyle={&quot;edgeStyle&quot;:&quot;elbowEdgeStyle&quot;,&quot;elbow&quot;:&quot;vertical&quot;,&quot;curved&quot;:0,&quot;rounded&quot;:0};size=65;fillColor=#dae8fc;strokeColor=#6c8ebf;" vertex="1" parent="1">
          <mxGeometry x="20" y="20" width="150" height="3456" as="geometry" />
        </mxCell>
        <mxCell id="w340K_XqLO_WmUCIKMtA-2" value="Hotel System" style="shape=umlLifeline;perimeter=lifelinePerimeter;whiteSpace=wrap;container=1;dropTarget=0;collapsible=0;recursiveResize=0;outlineConnect=0;portConstraint=eastwest;newEdgeStyle={&quot;edgeStyle&quot;:&quot;elbowEdgeStyle&quot;,&quot;elbow&quot;:&quot;vertical&quot;,&quot;curved&quot;:0,&quot;rounded&quot;:0};size=65;fillColor=#f5f5f5;fontColor=#333333;strokeColor=#666666;" vertex="1" parent="1">
          <mxGeometry x="358" y="20" width="150" height="3456" as="geometry" />
        </mxCell>
        <mxCell id="w340K_XqLO_WmUCIKMtA-3" value="Receptionist" style="shape=umlLifeline;perimeter=lifelinePerimeter;whiteSpace=wrap;container=1;dropTarget=0;collapsible=0;recursiveResize=0;outlineConnect=0;portConstraint=eastwest;newEdgeStyle={&quot;edgeStyle&quot;:&quot;elbowEdgeStyle&quot;,&quot;elbow&quot;:&quot;vertical&quot;,&quot;curved&quot;:0,&quot;rounded&quot;:0};size=65;fillColor=#d5e8d4;strokeColor=#82b366;" vertex="1" parent="1">
          <mxGeometry x="651" y="20" width="150" height="3456" as="geometry" />
        </mxCell>
        <mxCell id="w340K_XqLO_WmUCIKMtA-4" value="Payment System" style="shape=umlLifeline;perimeter=lifelinePerimeter;whiteSpace=wrap;container=1;dropTarget=0;collapsible=0;recursiveResize=0;outlineConnect=0;portConstraint=eastwest;newEdgeStyle={&quot;edgeStyle&quot;:&quot;elbowEdgeStyle&quot;,&quot;elbow&quot;:&quot;vertical&quot;,&quot;curved&quot;:0,&quot;rounded&quot;:0};size=65;fillColor=#f8cecc;strokeColor=#b85450;" vertex="1" parent="1">
          <mxGeometry x="851" y="20" width="150" height="3456" as="geometry" />
        </mxCell>
        <mxCell id="w340K_XqLO_WmUCIKMtA-5" value="alt" style="shape=umlFrame;dashed=1;pointerEvents=0;dropTarget=0;strokeColor=#B3B3B3;height=20;width=30" vertex="1" parent="1">
          <mxGeometry x="84" y="281" width="452" height="400" as="geometry" />
        </mxCell>
        <mxCell id="w340K_XqLO_WmUCIKMtA-6" value="[Guest not registered]" style="text;strokeColor=none;fillColor=none;align=center;verticalAlign=middle;whiteSpace=wrap;" vertex="1" parent="w340K_XqLO_WmUCIKMtA-5">
          <mxGeometry x="30" width="422" height="20" as="geometry" />
        </mxCell>
        <mxCell id="w340K_XqLO_WmUCIKMtA-7" value="[Guest already registered]" style="shape=line;dashed=1;whiteSpace=wrap;verticalAlign=top;labelPosition=center;verticalLabelPosition=middle;align=center;strokeColor=#B3B3B3;" vertex="1" parent="w340K_XqLO_WmUCIKMtA-5">
          <mxGeometry y="244" width="452" height="3" as="geometry" />
        </mxCell>
        <mxCell id="w340K_XqLO_WmUCIKMtA-8" value="alt" style="shape=umlFrame;dashed=1;pointerEvents=0;dropTarget=0;strokeColor=#B3B3B3;height=20;width=30" vertex="1" parent="1">
          <mxGeometry x="84" y="829" width="470" height="448" as="geometry" />
        </mxCell>
        <mxCell id="w340K_XqLO_WmUCIKMtA-9" value="[Rooms available]" style="text;strokeColor=none;fillColor=none;align=center;verticalAlign=middle;whiteSpace=wrap;" vertex="1" parent="w340K_XqLO_WmUCIKMtA-8">
          <mxGeometry x="30" width="440" height="20" as="geometry" />
        </mxCell>
        <mxCell id="w340K_XqLO_WmUCIKMtA-10" value="[No rooms available]" style="shape=line;dashed=1;whiteSpace=wrap;verticalAlign=top;labelPosition=center;verticalLabelPosition=middle;align=center;strokeColor=#B3B3B3;" vertex="1" parent="w340K_XqLO_WmUCIKMtA-8">
          <mxGeometry y="298" width="470" height="3" as="geometry" />
        </mxCell>
        <mxCell id="w340K_XqLO_WmUCIKMtA-11" value="alt" style="shape=umlFrame;dashed=1;pointerEvents=0;dropTarget=0;strokeColor=#B3B3B3;height=20;width=30" vertex="1" parent="1">
          <mxGeometry x="84" y="1658" width="461" height="370" as="geometry" />
        </mxCell>
        <mxCell id="w340K_XqLO_WmUCIKMtA-12" value="[Change booking details]" style="text;strokeColor=none;fillColor=none;align=center;verticalAlign=middle;whiteSpace=wrap;" vertex="1" parent="w340K_XqLO_WmUCIKMtA-11">
          <mxGeometry x="30" width="431" height="20" as="geometry" />
        </mxCell>
        <mxCell id="w340K_XqLO_WmUCIKMtA-13" value="[Cancel booking]" style="shape=line;dashed=1;whiteSpace=wrap;verticalAlign=top;labelPosition=center;verticalLabelPosition=middle;align=center;strokeColor=#B3B3B3;" vertex="1" parent="w340K_XqLO_WmUCIKMtA-11">
          <mxGeometry y="190" width="461" height="3" as="geometry" />
        </mxCell>
        <mxCell id="w340K_XqLO_WmUCIKMtA-14" value="opt" style="shape=umlFrame;dashed=1;pointerEvents=0;dropTarget=0;strokeColor=#B3B3B3;height=20;width=30" vertex="1" parent="1">
          <mxGeometry x="74" y="1335" width="481" height="703" as="geometry" />
        </mxCell>
        <mxCell id="w340K_XqLO_WmUCIKMtA-15" value="[Guest wants to modify booking]" style="text;strokeColor=none;fillColor=none;align=center;verticalAlign=middle;whiteSpace=wrap;" vertex="1" parent="w340K_XqLO_WmUCIKMtA-14">
          <mxGeometry x="30" width="451" height="20" as="geometry" />
        </mxCell>
        <mxCell id="w340K_XqLO_WmUCIKMtA-16" value="opt" style="shape=umlFrame;dashed=1;pointerEvents=0;dropTarget=0;strokeColor=#B3B3B3;height=20;width=30" vertex="1" parent="1">
          <mxGeometry x="84" y="2845" width="653" height="263" as="geometry" />
        </mxCell>
        <mxCell id="w340K_XqLO_WmUCIKMtA-17" value="[Guest requests invoice]" style="text;strokeColor=none;fillColor=none;align=center;verticalAlign=middle;whiteSpace=wrap;" vertex="1" parent="w340K_XqLO_WmUCIKMtA-16">
          <mxGeometry x="30" width="623" height="20" as="geometry" />
        </mxCell>
        <mxCell id="w340K_XqLO_WmUCIKMtA-18" value="alt" style="shape=umlFrame;dashed=1;pointerEvents=0;dropTarget=0;strokeColor=#B3B3B3;height=20;width=30" vertex="1" parent="1">
          <mxGeometry x="74" y="2690" width="863" height="691" as="geometry" />
        </mxCell>
        <mxCell id="w340K_XqLO_WmUCIKMtA-19" value="[Payment successful]" style="text;strokeColor=none;fillColor=none;align=center;verticalAlign=middle;whiteSpace=wrap;" vertex="1" parent="w340K_XqLO_WmUCIKMtA-18">
          <mxGeometry x="30" width="833" height="20" as="geometry" />
        </mxCell>
        <mxCell id="w340K_XqLO_WmUCIKMtA-20" value="[Payment failed]" style="shape=line;dashed=1;whiteSpace=wrap;verticalAlign=top;labelPosition=center;verticalLabelPosition=middle;align=center;strokeColor=#B3B3B3;" vertex="1" parent="w340K_XqLO_WmUCIKMtA-18">
          <mxGeometry y="487" width="863" height="3" as="geometry" />
        </mxCell>
        <mxCell id="w340K_XqLO_WmUCIKMtA-21" value="Visit hotel website" style="verticalAlign=bottom;edgeStyle=elbowEdgeStyle;elbow=vertical;curved=0;rounded=0;endArrow=block;" edge="1" parent="1" source="w340K_XqLO_WmUCIKMtA-1" target="w340K_XqLO_WmUCIKMtA-2">
          <mxGeometry relative="1" as="geometry">
            <Array as="points">
              <mxPoint x="273" y="177" />
            </Array>
          </mxGeometry>
        </mxCell>
        <mxCell id="w340K_XqLO_WmUCIKMtA-22" value="Check if guest is registered" style="curved=1;endArrow=block;rounded=0;" edge="1" parent="1" source="w340K_XqLO_WmUCIKMtA-2" target="w340K_XqLO_WmUCIKMtA-2">
          <mxGeometry relative="1" as="geometry">
            <Array as="points">
              <mxPoint x="484" y="231" />
              <mxPoint x="484" y="261" />
            </Array>
          </mxGeometry>
        </mxCell>
        <mxCell id="w340K_XqLO_WmUCIKMtA-23" value="Request registration details" style="verticalAlign=bottom;edgeStyle=elbowEdgeStyle;elbow=vertical;curved=0;rounded=0;endArrow=block;" edge="1" parent="1" source="w340K_XqLO_WmUCIKMtA-2" target="w340K_XqLO_WmUCIKMtA-1">
          <mxGeometry relative="1" as="geometry">
            <Array as="points">
              <mxPoint x="276" y="362" />
            </Array>
          </mxGeometry>
        </mxCell>
        <mxCell id="w340K_XqLO_WmUCIKMtA-24" value="Provide personal information" style="verticalAlign=bottom;edgeStyle=elbowEdgeStyle;elbow=vertical;curved=0;rounded=0;endArrow=block;" edge="1" parent="1" source="w340K_XqLO_WmUCIKMtA-1" target="w340K_XqLO_WmUCIKMtA-2">
          <mxGeometry relative="1" as="geometry">
            <Array as="points">
              <mxPoint x="273" y="416" />
            </Array>
          </mxGeometry>
        </mxCell>
        <mxCell id="w340K_XqLO_WmUCIKMtA-25" value="Create new guest account" style="curved=1;endArrow=block;rounded=0;" edge="1" parent="1" source="w340K_XqLO_WmUCIKMtA-2" target="w340K_XqLO_WmUCIKMtA-2">
          <mxGeometry relative="1" as="geometry">
            <Array as="points">
              <mxPoint x="484" y="470" />
              <mxPoint x="484" y="500" />
            </Array>
          </mxGeometry>
        </mxCell>
        <mxCell id="w340K_XqLO_WmUCIKMtA-26" value="Load existing guest data" style="curved=1;endArrow=block;rounded=0;" edge="1" parent="1" source="w340K_XqLO_WmUCIKMtA-2" target="w340K_XqLO_WmUCIKMtA-2">
          <mxGeometry relative="1" as="geometry">
            <Array as="points">
              <mxPoint x="484" y="601" />
              <mxPoint x="484" y="631" />
            </Array>
          </mxGeometry>
        </mxCell>
        <mxCell id="w340K_XqLO_WmUCIKMtA-27" value="Select room type and dates" style="verticalAlign=bottom;edgeStyle=elbowEdgeStyle;elbow=vertical;curved=0;rounded=0;endArrow=block;" edge="1" parent="1" source="w340K_XqLO_WmUCIKMtA-1" target="w340K_XqLO_WmUCIKMtA-2">
          <mxGeometry relative="1" as="geometry">
            <Array as="points">
              <mxPoint x="273" y="725" />
            </Array>
          </mxGeometry>
        </mxCell>
        <mxCell id="w340K_XqLO_WmUCIKMtA-28" value="Check room availability" style="curved=1;endArrow=block;rounded=0;" edge="1" parent="1" source="w340K_XqLO_WmUCIKMtA-2" target="w340K_XqLO_WmUCIKMtA-2">
          <mxGeometry relative="1" as="geometry">
            <Array as="points">
              <mxPoint x="484" y="779" />
              <mxPoint x="484" y="809" />
            </Array>
          </mxGeometry>
        </mxCell>
        <mxCell id="w340K_XqLO_WmUCIKMtA-29" value="Display available options" style="verticalAlign=bottom;edgeStyle=elbowEdgeStyle;elbow=vertical;curved=0;rounded=0;endArrow=block;" edge="1" parent="1" source="w340K_XqLO_WmUCIKMtA-2" target="w340K_XqLO_WmUCIKMtA-1">
          <mxGeometry relative="1" as="geometry">
            <Array as="points">
              <mxPoint x="276" y="910" />
            </Array>
          </mxGeometry>
        </mxCell>
        <mxCell id="w340K_XqLO_WmUCIKMtA-30" value="Confirm room selection" style="verticalAlign=bottom;edgeStyle=elbowEdgeStyle;elbow=vertical;curved=0;rounded=0;endArrow=block;" edge="1" parent="1" source="w340K_XqLO_WmUCIKMtA-1" target="w340K_XqLO_WmUCIKMtA-2">
          <mxGeometry relative="1" as="geometry">
            <Array as="points">
              <mxPoint x="273" y="964" />
            </Array>
          </mxGeometry>
        </mxCell>
        <mxCell id="w340K_XqLO_WmUCIKMtA-31" value="Generate unique booking code" style="curved=1;endArrow=block;rounded=0;" edge="1" parent="1" source="w340K_XqLO_WmUCIKMtA-2" target="w340K_XqLO_WmUCIKMtA-2">
          <mxGeometry relative="1" as="geometry">
            <Array as="points">
              <mxPoint x="484" y="1018" />
              <mxPoint x="484" y="1048" />
            </Array>
          </mxGeometry>
        </mxCell>
        <mxCell id="w340K_XqLO_WmUCIKMtA-32" value="Send booking confirmation" style="verticalAlign=bottom;edgeStyle=elbowEdgeStyle;elbow=vertical;curved=0;rounded=0;endArrow=block;" edge="1" parent="1" source="w340K_XqLO_WmUCIKMtA-2" target="w340K_XqLO_WmUCIKMtA-1">
          <mxGeometry relative="1" as="geometry">
            <Array as="points">
              <mxPoint x="276" y="1102" />
            </Array>
          </mxGeometry>
        </mxCell>
        <mxCell id="w340K_XqLO_WmUCIKMtA-33" value="Show alternative options" style="verticalAlign=bottom;edgeStyle=elbowEdgeStyle;elbow=vertical;curved=0;rounded=0;endArrow=block;" edge="1" parent="1" source="w340K_XqLO_WmUCIKMtA-2" target="w340K_XqLO_WmUCIKMtA-1">
          <mxGeometry relative="1" as="geometry">
            <Array as="points">
              <mxPoint x="276" y="1203" />
            </Array>
          </mxGeometry>
        </mxCell>
        <mxCell id="w340K_XqLO_WmUCIKMtA-34" value="Modify search criteria" style="verticalAlign=bottom;edgeStyle=elbowEdgeStyle;elbow=vertical;curved=0;rounded=0;endArrow=block;" edge="1" parent="1" source="w340K_XqLO_WmUCIKMtA-1" target="w340K_XqLO_WmUCIKMtA-2">
          <mxGeometry relative="1" as="geometry">
            <Array as="points">
              <mxPoint x="273" y="1257" />
            </Array>
          </mxGeometry>
        </mxCell>
        <mxCell id="w340K_XqLO_WmUCIKMtA-35" value="Enter booking code" style="verticalAlign=bottom;edgeStyle=elbowEdgeStyle;elbow=vertical;curved=0;rounded=0;endArrow=block;" edge="1" parent="1" source="w340K_XqLO_WmUCIKMtA-1" target="w340K_XqLO_WmUCIKMtA-2">
          <mxGeometry relative="1" as="geometry">
            <Array as="points">
              <mxPoint x="273" y="1416" />
            </Array>
          </mxGeometry>
        </mxCell>
        <mxCell id="w340K_XqLO_WmUCIKMtA-36" value="Find booking by code" style="curved=1;endArrow=block;rounded=0;" edge="1" parent="1" source="w340K_XqLO_WmUCIKMtA-2" target="w340K_XqLO_WmUCIKMtA-2">
          <mxGeometry relative="1" as="geometry">
            <Array as="points">
              <mxPoint x="484" y="1470" />
              <mxPoint x="484" y="1500" />
            </Array>
          </mxGeometry>
        </mxCell>
        <mxCell id="w340K_XqLO_WmUCIKMtA-37" value="Request changes (dates/room/guests)" style="verticalAlign=bottom;edgeStyle=elbowEdgeStyle;elbow=vertical;curved=0;rounded=0;endArrow=block;" edge="1" parent="1" source="w340K_XqLO_WmUCIKMtA-1" target="w340K_XqLO_WmUCIKMtA-2">
          <mxGeometry relative="1" as="geometry">
            <Array as="points">
              <mxPoint x="273" y="1554" />
            </Array>
          </mxGeometry>
        </mxCell>
        <mxCell id="w340K_XqLO_WmUCIKMtA-38" value="Process modification" style="curved=1;endArrow=block;rounded=0;" edge="1" parent="1" source="w340K_XqLO_WmUCIKMtA-2" target="w340K_XqLO_WmUCIKMtA-2">
          <mxGeometry relative="1" as="geometry">
            <Array as="points">
              <mxPoint x="484" y="1608" />
              <mxPoint x="484" y="1638" />
            </Array>
          </mxGeometry>
        </mxCell>
        <mxCell id="w340K_XqLO_WmUCIKMtA-39" value="Update booking information" style="curved=1;endArrow=block;rounded=0;" edge="1" parent="1" source="w340K_XqLO_WmUCIKMtA-2" target="w340K_XqLO_WmUCIKMtA-2">
          <mxGeometry relative="1" as="geometry">
            <Array as="points">
              <mxPoint x="484" y="1739" />
              <mxPoint x="484" y="1769" />
            </Array>
          </mxGeometry>
        </mxCell>
        <mxCell id="w340K_XqLO_WmUCIKMtA-40" value="Send updated confirmation" style="verticalAlign=bottom;edgeStyle=elbowEdgeStyle;elbow=vertical;curved=0;rounded=0;endArrow=block;" edge="1" parent="1" source="w340K_XqLO_WmUCIKMtA-2" target="w340K_XqLO_WmUCIKMtA-1">
          <mxGeometry relative="1" as="geometry">
            <Array as="points">
              <mxPoint x="276" y="1823" />
            </Array>
          </mxGeometry>
        </mxCell>
        <mxCell id="w340K_XqLO_WmUCIKMtA-41" value="Cancel booking" style="curved=1;endArrow=block;rounded=0;" edge="1" parent="1" source="w340K_XqLO_WmUCIKMtA-2" target="w340K_XqLO_WmUCIKMtA-2">
          <mxGeometry relative="1" as="geometry">
            <Array as="points">
              <mxPoint x="484" y="1924" />
              <mxPoint x="484" y="1954" />
            </Array>
          </mxGeometry>
        </mxCell>
        <mxCell id="w340K_XqLO_WmUCIKMtA-42" value="Send cancellation confirmation" style="verticalAlign=bottom;edgeStyle=elbowEdgeStyle;elbow=vertical;curved=0;rounded=0;endArrow=block;" edge="1" parent="1" source="w340K_XqLO_WmUCIKMtA-2" target="w340K_XqLO_WmUCIKMtA-1">
          <mxGeometry relative="1" as="geometry">
            <Array as="points">
              <mxPoint x="276" y="2008" />
            </Array>
          </mxGeometry>
        </mxCell>
        <mxCell id="w340K_XqLO_WmUCIKMtA-43" value="Arrive at hotel" style="verticalAlign=bottom;edgeStyle=elbowEdgeStyle;elbow=vertical;curved=0;rounded=0;endArrow=block;" edge="1" parent="1" source="w340K_XqLO_WmUCIKMtA-1" target="w340K_XqLO_WmUCIKMtA-3">
          <mxGeometry relative="1" as="geometry">
            <Array as="points">
              <mxPoint x="419" y="2130" />
            </Array>
          </mxGeometry>
        </mxCell>
        <mxCell id="w340K_XqLO_WmUCIKMtA-44" value="Use booking ID to find booking" style="verticalAlign=bottom;edgeStyle=elbowEdgeStyle;elbow=vertical;curved=0;rounded=0;endArrow=block;" edge="1" parent="1" source="w340K_XqLO_WmUCIKMtA-3" target="w340K_XqLO_WmUCIKMtA-2">
          <mxGeometry relative="1" as="geometry">
            <Array as="points">
              <mxPoint x="591" y="2184" />
            </Array>
          </mxGeometry>
        </mxCell>
        <mxCell id="w340K_XqLO_WmUCIKMtA-45" value="Return booking details" style="verticalAlign=bottom;edgeStyle=elbowEdgeStyle;elbow=vertical;curved=0;rounded=0;endArrow=block;" edge="1" parent="1" source="w340K_XqLO_WmUCIKMtA-2" target="w340K_XqLO_WmUCIKMtA-3">
          <mxGeometry relative="1" as="geometry">
            <Array as="points">
              <mxPoint x="588" y="2238" />
            </Array>
          </mxGeometry>
        </mxCell>
        <mxCell id="w340K_XqLO_WmUCIKMtA-46" value="Verify booking information" style="curved=1;endArrow=block;rounded=0;" edge="1" parent="1" source="w340K_XqLO_WmUCIKMtA-3" target="w340K_XqLO_WmUCIKMtA-3">
          <mxGeometry relative="1" as="geometry">
            <Array as="points">
              <mxPoint x="777" y="2292" />
              <mxPoint x="777" y="2322" />
            </Array>
          </mxGeometry>
        </mxCell>
        <mxCell id="w340K_XqLO_WmUCIKMtA-47" value="Check-in guest" style="verticalAlign=bottom;edgeStyle=elbowEdgeStyle;elbow=vertical;curved=0;rounded=0;endArrow=block;" edge="1" parent="1" source="w340K_XqLO_WmUCIKMtA-3" target="w340K_XqLO_WmUCIKMtA-2">
          <mxGeometry relative="1" as="geometry">
            <Array as="points">
              <mxPoint x="591" y="2376" />
            </Array>
          </mxGeometry>
        </mxCell>
        <mxCell id="w340K_XqLO_WmUCIKMtA-48" value="Update booking status" style="curved=1;endArrow=block;rounded=0;" edge="1" parent="1" source="w340K_XqLO_WmUCIKMtA-2" target="w340K_XqLO_WmUCIKMtA-2">
          <mxGeometry relative="1" as="geometry">
            <Array as="points">
              <mxPoint x="484" y="2430" />
              <mxPoint x="484" y="2460" />
            </Array>
          </mxGeometry>
        </mxCell>
        <mxCell id="w340K_XqLO_WmUCIKMtA-49" value="Request checkout" style="verticalAlign=bottom;edgeStyle=elbowEdgeStyle;elbow=vertical;curved=0;rounded=0;endArrow=block;" edge="1" parent="1" source="w340K_XqLO_WmUCIKMtA-1" target="w340K_XqLO_WmUCIKMtA-3">
          <mxGeometry relative="1" as="geometry">
            <Array as="points">
              <mxPoint x="419" y="2562" />
            </Array>
          </mxGeometry>
        </mxCell>
        <mxCell id="w340K_XqLO_WmUCIKMtA-50" value="Settle guest account" style="verticalAlign=bottom;edgeStyle=elbowEdgeStyle;elbow=vertical;curved=0;rounded=0;endArrow=block;" edge="1" parent="1" source="w340K_XqLO_WmUCIKMtA-3" target="w340K_XqLO_WmUCIKMtA-2">
          <mxGeometry relative="1" as="geometry">
            <Array as="points">
              <mxPoint x="591" y="2616" />
            </Array>
          </mxGeometry>
        </mxCell>
        <mxCell id="w340K_XqLO_WmUCIKMtA-51" value="Process payment via card system" style="verticalAlign=bottom;edgeStyle=elbowEdgeStyle;elbow=vertical;curved=0;rounded=0;endArrow=block;" edge="1" parent="1" source="w340K_XqLO_WmUCIKMtA-2" target="w340K_XqLO_WmUCIKMtA-4">
          <mxGeometry relative="1" as="geometry">
            <Array as="points">
              <mxPoint x="688" y="2670" />
            </Array>
          </mxGeometry>
        </mxCell>
        <mxCell id="w340K_XqLO_WmUCIKMtA-52" value="Payment confirmation" style="verticalAlign=bottom;edgeStyle=elbowEdgeStyle;elbow=vertical;curved=0;rounded=0;endArrow=block;" edge="1" parent="1" source="w340K_XqLO_WmUCIKMtA-4" target="w340K_XqLO_WmUCIKMtA-2">
          <mxGeometry relative="1" as="geometry">
            <Array as="points">
              <mxPoint x="691" y="2771" />
            </Array>
          </mxGeometry>
        </mxCell>
        <mxCell id="w340K_XqLO_WmUCIKMtA-53" value="Payment approved" style="verticalAlign=bottom;edgeStyle=elbowEdgeStyle;elbow=vertical;curved=0;rounded=0;endArrow=block;" edge="1" parent="1" source="w340K_XqLO_WmUCIKMtA-2" target="w340K_XqLO_WmUCIKMtA-3">
          <mxGeometry relative="1" as="geometry">
            <Array as="points">
              <mxPoint x="588" y="2825" />
            </Array>
          </mxGeometry>
        </mxCell>
        <mxCell id="w340K_XqLO_WmUCIKMtA-54" value="Request invoice" style="verticalAlign=bottom;edgeStyle=elbowEdgeStyle;elbow=vertical;curved=0;rounded=0;endArrow=block;" edge="1" parent="1" source="w340K_XqLO_WmUCIKMtA-1" target="w340K_XqLO_WmUCIKMtA-3">
          <mxGeometry relative="1" as="geometry">
            <Array as="points">
              <mxPoint x="419" y="2926" />
            </Array>
          </mxGeometry>
        </mxCell>
        <mxCell id="w340K_XqLO_WmUCIKMtA-55" value="Generate invoice" style="verticalAlign=bottom;edgeStyle=elbowEdgeStyle;elbow=vertical;curved=0;rounded=0;endArrow=block;" edge="1" parent="1" source="w340K_XqLO_WmUCIKMtA-3" target="w340K_XqLO_WmUCIKMtA-2">
          <mxGeometry relative="1" as="geometry">
            <Array as="points">
              <mxPoint x="591" y="2980" />
            </Array>
          </mxGeometry>
        </mxCell>
        <mxCell id="w340K_XqLO_WmUCIKMtA-56" value="Provide invoice details" style="verticalAlign=bottom;edgeStyle=elbowEdgeStyle;elbow=vertical;curved=0;rounded=0;endArrow=block;" edge="1" parent="1" source="w340K_XqLO_WmUCIKMtA-2" target="w340K_XqLO_WmUCIKMtA-3">
          <mxGeometry relative="1" as="geometry">
            <Array as="points">
              <mxPoint x="588" y="3034" />
            </Array>
          </mxGeometry>
        </mxCell>
        <mxCell id="w340K_XqLO_WmUCIKMtA-57" value="Print invoice" style="verticalAlign=bottom;edgeStyle=elbowEdgeStyle;elbow=vertical;curved=0;rounded=0;endArrow=block;" edge="1" parent="1" source="w340K_XqLO_WmUCIKMtA-3" target="w340K_XqLO_WmUCIKMtA-1">
          <mxGeometry relative="1" as="geometry">
            <Array as="points">
              <mxPoint x="422" y="3088" />
            </Array>
          </mxGeometry>
        </mxCell>
        <mxCell id="w340K_XqLO_WmUCIKMtA-58" value="Complete checkout process" style="verticalAlign=bottom;edgeStyle=elbowEdgeStyle;elbow=vertical;curved=0;rounded=0;endArrow=block;" edge="1" parent="1" source="w340K_XqLO_WmUCIKMtA-3" target="w340K_XqLO_WmUCIKMtA-1">
          <mxGeometry relative="1" as="geometry">
            <Array as="points">
              <mxPoint x="422" y="3152" />
            </Array>
          </mxGeometry>
        </mxCell>
        <mxCell id="w340K_XqLO_WmUCIKMtA-59" value="Payment failure" style="verticalAlign=bottom;edgeStyle=elbowEdgeStyle;elbow=vertical;curved=0;rounded=0;endArrow=block;" edge="1" parent="1" source="w340K_XqLO_WmUCIKMtA-4" target="w340K_XqLO_WmUCIKMtA-2">
          <mxGeometry relative="1" as="geometry">
            <Array as="points">
              <mxPoint x="691" y="3253" />
            </Array>
          </mxGeometry>
        </mxCell>
        <mxCell id="w340K_XqLO_WmUCIKMtA-60" value="Handle payment issue" style="verticalAlign=bottom;edgeStyle=elbowEdgeStyle;elbow=vertical;curved=0;rounded=0;endArrow=block;" edge="1" parent="1" source="w340K_XqLO_WmUCIKMtA-2" target="w340K_XqLO_WmUCIKMtA-3">
          <mxGeometry relative="1" as="geometry">
            <Array as="points">
              <mxPoint x="588" y="3307" />
            </Array>
          </mxGeometry>
        </mxCell>
        <mxCell id="w340K_XqLO_WmUCIKMtA-61" value="Request alternative payment" style="verticalAlign=bottom;edgeStyle=elbowEdgeStyle;elbow=vertical;curved=0;rounded=0;endArrow=block;" edge="1" parent="1" source="w340K_XqLO_WmUCIKMtA-3" target="w340K_XqLO_WmUCIKMtA-1">
          <mxGeometry relative="1" as="geometry">
            <Array as="points">
              <mxPoint x="422" y="3361" />
            </Array>
          </mxGeometry>
        </mxCell>
        <mxCell id="w340K_XqLO_WmUCIKMtA-62" value="Room Reservation Process" style="fillColor=#ffff88;strokeColor=#9E916F;" vertex="1" parent="1">
          <mxGeometry x="70" y="95" width="881" height="48" as="geometry" />
        </mxCell>
        <mxCell id="w340K_XqLO_WmUCIKMtA-63" value="Optional: Booking Modification" style="fillColor=#ffff88;strokeColor=#9E916F;" vertex="1" parent="1">
          <mxGeometry x="70" y="1287" width="388" height="48" as="geometry" />
        </mxCell>
        <mxCell id="w340K_XqLO_WmUCIKMtA-64" value="Check-in and Payment Process" style="fillColor=#ffff88;strokeColor=#9E916F;" vertex="1" parent="1">
          <mxGeometry x="70" y="2048" width="881" height="48" as="geometry" />
        </mxCell>
        <mxCell id="w340K_XqLO_WmUCIKMtA-65" value="Guest stay period" style="fillColor=#ffff88;strokeColor=#9E916F;" vertex="1" parent="1">
          <mxGeometry x="701" y="2480" width="250" height="48" as="geometry" />
        </mxCell>
      </root>
    </mxGraphModel>
  </diagram>
</mxfile>
